<svg width="213" height="61" fill="none" xmlns="http://www.w3.org/2000/svg"><path d="M212 1H17L1 17v43h195l16-16V1z" stroke="#FD4D7C" stroke-linecap="round" stroke-linejoin="round"/><path d="M11.573.427L.427 11.573A.25.25 0 010 11.396V.25A.25.25 0 01.25 0h11.146a.25.25 0 01.177.427z" fill="#FD4D7C"/><path d="M6.744 2.256L2.256 6.744A.15.15 0 012 6.638V2.15A.15.15 0 012.15 2h4.488c.133 0 .2.162.106.256z" fill="#0F0F0F"/><path d="M200.427 59.573l11.146-11.146a.25.25 0 01.427.177V59.75a.25.25 0 01-.25.25h-11.146a.25.25 0 01-.177-.427z" fill="#FD4D7C"/><path d="M205.256 57.744l4.488-4.488a.15.15 0 01.256.106v4.488a.15.15 0 01-.15.15h-4.488a.15.15 0 01-.106-.256z" fill="#0F0F0F"/></svg>