<svg width="64" height="49" fill="none" xmlns="http://www.w3.org/2000/svg"><path d="M63 1H14L1 14v34h49.5L63 35.5V1z" stroke="#FD4D7C"/><path d="M54.34 48.226l8.886-8.886a.2.2 0 01.34.141v8.886a.2.2 0 01-.2.199h-8.885a.2.2 0 01-.14-.34z" fill="#FD4D7C"/><path d="M58.19 46.768l3.577-3.578a.12.12 0 01.204.085v3.578a.12.12 0 01-.12.12h-3.577a.12.12 0 01-.084-.205z" fill="#0F0F0F"/><path d="M10.226 1.34l-8.885 8.886a.2.2 0 01-.34-.141V1.199a.2.2 0 01.199-.2h8.885a.2.2 0 01.141.341z" fill="#FD4D7C"/><path d="M6.377 2.798L2.799 6.375a.12.12 0 01-.204-.084V2.713a.12.12 0 01.12-.12h3.577a.12.12 0 01.085.205z" fill="#0F0F0F"/></svg>